<?xml version="1.0" ?><svg style="enable-background:new 0 0 256 256;" version="1.1" viewBox="0 0 256 256" xml:space="preserve" xmlns="http://www.w3.org/2000/svg" xmlns:xlink="http://www.w3.org/1999/xlink"><style type="text/css">
	.st0{fill:#D5E2EB;}
	.st1{fill:none;stroke:#00A388;stroke-width:4;stroke-miterlimit:10;}
	.st2{fill:#FFFFFF;}
	.st3{fill:#CC4E47;}
	.st4{fill:#EA685E;}
	.st5{fill:#4B687F;}
	.st6{fill:#2C3E50;}
	.st7{fill:#3E5063;}
	.st8{fill:#FFAB80;}
	.st9{filter:url(#Adobe_OpacityMaskFilter);}
	.st10{mask:url(#SVGID_2_);}
	.st11{fill:#F09A79;}
	.st12{fill:#00886F;}
	.st13{fill:#00A388;}
	.st14{fill:none;stroke:#3E5063;stroke-width:4;stroke-miterlimit:10;}
	.st15{fill:#FFD766;}
	.st16{fill:#5488B7;}
	.st17{fill:#8C623B;}
	.st18{fill:#E6E6E6;stroke:#3E5063;stroke-width:16;stroke-miterlimit:10;}
	.st19{opacity:0.6;}
	.st20{fill:#E6E6E6;}
	.st21{fill:none;stroke:#D5E2EB;stroke-width:5;stroke-miterlimit:10;}
	.st22{fill:#FFEC9F;}
	.st23{fill:#603813;}
	.st24{filter:url(#Adobe_OpacityMaskFilter_1_);}
	.st25{mask:url(#SVGID_1_);}
</style><g id="Layer_2"><circle class="st0" cx="128" cy="128" r="120"/></g><g id="Layer_1"><g><g><path class="st5" d="M134.87619,202.14767c-0.70592,3.13776-3.51427,5.47537-6.87151,5.47537     c-3.34191,0-6.16577-2.33762-6.87189-5.47537c0.39222,0.04701,0.80015,0.06271,1.22377,0.06271h11.29585     C134.07605,202.21039,134.48396,202.19467,134.87619,202.14767z"/></g><g><path class="st7" d="M146.59566,164.44748l-1.25497,23.69012c0,7.32663-3.73395,13.36678-10.46449,14.01007     c-0.39223,0.04701-0.80014,0.06271-1.22377,0.06271h-11.29585c-0.42362,0-0.83155-0.0157-1.22377-0.06271     c-6.73055-0.64328-10.46429-6.68344-10.46429-14.01007l-1.25519-23.69012H146.59566z"/></g><g><path class="st5" d="M110.18089,175.19672c-1.69205,0-3.1438-1.27681-3.32689-2.99503     c-0.19454-1.83917,1.13784-3.48711,2.97704-3.68329l35.64268-3.77646c1.84737-0.17004,3.48714,1.13948,3.68332,2.97704     c0.19452,1.83919-1.13786,3.48711-2.97707,3.68327l-35.64268,3.77647     C110.41631,175.19019,110.2986,175.19672,110.18089,175.19672z"/></g><g><path class="st5" d="M111.04408,186.86812c-1.69204,0-3.1438-1.27681-3.32688-2.99501     c-0.19456-1.83917,1.13948-3.48711,2.97704-3.68329l33.91631-3.59174c1.83592-0.16348,3.48711,1.13786,3.68329,2.97704     c0.19453,1.83919-1.13948,3.48711-2.97705,3.68329l-33.91632,3.59174C111.2795,186.86159,111.1618,186.86812,111.04408,186.86812     z"/></g><g><path class="st5" d="M112.92905,198.43332c-1.69207,0-3.14378-1.27682-3.3269-2.99503     c-0.19454-1.83917,1.13948-3.48709,2.97703-3.68327l30.14803-3.19284c1.83429-0.1684,3.48709,1.13783,3.68327,2.97704     c0.19455,1.83917-1.13948,3.48711-2.97702,3.68329l-30.14803,3.19284     C113.16447,198.42679,113.04677,198.43332,112.92905,198.43332z"/></g><g><path class="st22" d="M173.00002,93.38892c0,9.94678-3.23199,19.14038-8.70734,26.59253     c-6.11847,8.33057-9.75836,18.21461-9.75836,28.55347v9.44458c0,4.12622-3.34174,7.46802-7.4679,7.46802h-38.12385     c-4.12598,0-7.4679-3.3418-7.4679-7.46802V147.4839c0-9.82129-3.51428-19.20313-9.42896-27.04762     c-6.68329-8.86401-10.16632-20.28564-8.7229-32.52271c2.43188-20.521,19.01483-36.97852,39.55157-39.25342     C150.03163,45.66358,173.00002,66.84351,173.00002,93.38892z"/></g><g><path class="st15" d="M118.50449,161.7271l0.6413-12.10553c0-3.74388,1.90802-6.83035,5.3473-7.15907     c0.20042-0.02403,0.40887-0.03206,0.62534-0.03206h5.77213c0.21648,0,0.42491,0.00803,0.62534,0.03206     c3.43929,0.3287,5.34721,3.41519,5.34721,7.15907l0.64139,12.10553H118.50449z"/></g><g><g><path class="st15" d="M122.88818,146.02344c-0.91309,0-1.73779-0.62891-1.94824-1.55664l-9.78613-43.09082      c-0.24463-1.07715,0.43018-2.14844,1.50732-2.39307c1.07471-0.24658,2.14893,0.42969,2.39307,1.50732l9.78613,43.08984      c0.24463,1.07715-0.43018,2.14941-1.50732,2.39355C123.18408,146.00781,123.03516,146.02344,122.88818,146.02344z"/></g><g><path class="st15" d="M133.10596,146.02344c-0.14697,0-0.2959-0.01563-0.44482-0.0498      c-1.07715-0.24414-1.75195-1.31641-1.50732-2.39355l9.78613-43.08984c0.24463-1.07764,1.31885-1.75391,2.39307-1.50732      c1.07715,0.24463,1.75195,1.31592,1.50732,2.39307l-9.78613,43.09082      C134.84375,145.39453,134.01904,146.02344,133.10596,146.02344z"/></g></g><g><path class="st15" d="M120.5498,106.20361l-8.39209-4.50879c-0.97314-0.52246-1.33838-1.73535-0.81543-2.70801     c0.52197-0.97363,1.73486-1.33936,2.70801-0.81543l6.49951,3.49121l7.44287-4l7.44873,4.00049l6.50244-3.49219     c0.97314-0.52344,2.18457-0.15771,2.7085,0.81592c0.52246,0.97314,0.15723,2.18555-0.81592,2.7085l-8.39502,4.50781     l-7.44775-3.99951L120.5498,106.20361z"/></g></g></g></svg>